<svg width="104" height="104" viewBox="0 0 104 104" fill="none" xmlns="http://www.w3.org/2000/svg">
<path d="M0.5 89.5L6 95.5L14 86.5V81L9 79.5L0.5 84.5V89.5Z" fill="#D9D9D9" stroke="black"/>
<path d="M103 80.5V96L95.5 102.5L79 97L64.5 94.5H36L9 102.5L7.5 96L15 88L17 82.5L23.5 88L27 75.5L34.5 85.5L38 75.5L42 82.5L47 75.5L51 80.5L54 75.5L58.5 82.5L64.5 75.5L71.5 84L76 75.5L80 84L85.5 75.5L88.5 85.5L95.5 80.5V88L103 80.5Z" fill="#D9D9D9" stroke="black"/>
<path d="M65 7V12L57.5 10L62.5 25V35.5L54.5 69.5L57.5 80L65 73L70.5 80L74 73L69 65L77.5 62.5L72.5 52.5H81.5L75.5 42L81.5 40.5L75.5 31.5H81.5L75.5 22H81.5L65 7Z" fill="#D9D9D9" stroke="black"/>
<path d="M18.5 32L7.5 76H12.5L18.5 80.5L24.5 76L20 72L27.5 66L18.5 62L33.5 56.5L27.5 52L36 44.5L29.5 41L38 35L32 32L43.5 28L36 23L43.5 19.5L36 13.5H45.5V9.5L54 13.5V7L63 9.5L57 3.5L47 1L29.5 9.5L18.5 32Z" fill="#D9D9D9" stroke="black"/>
</svg>
