<svg width="96" height="149" viewBox="0 0 96 149" fill="none" xmlns="http://www.w3.org/2000/svg">
<circle cx="48" cy="7" r="7" fill="#D9D9D9"/>
<circle cx="48" cy="7" r="7" fill="#D9D9D9"/>
<circle cx="62" cy="10" r="7" fill="#D9D9D9"/>
<circle cx="48" cy="87" r="7" fill="#D9D9D9"/>
<circle cx="62" cy="85" r="7" fill="#D9D9D9"/>
<circle cx="74" cy="78" r="7" fill="#D9D9D9"/>
<circle cx="82" cy="67" r="7" fill="#D9D9D9"/>
<circle cx="89" cy="55" r="7" fill="#D9D9D9"/>
<circle cx="88" cy="41" r="7" fill="#D9D9D9"/>
<circle cx="83" cy="28" r="7" fill="#D9D9D9"/>
<circle cx="74" cy="17" r="7" fill="#D9D9D9"/>
<circle r="7" transform="matrix(-1 0 0 1 34 9)" fill="#D9D9D9"/>
<circle r="7" transform="matrix(-1 0 0 1 34 85)" fill="#D9D9D9"/>
<circle r="7" transform="matrix(-1 0 0 1 22 77)" fill="#D9D9D9"/>
<circle r="7" transform="matrix(-1 0 0 1 13 66)" fill="#D9D9D9"/>
<circle r="7" transform="matrix(-1 0 0 1 7 54)" fill="#D9D9D9"/>
<circle r="7" transform="matrix(-1 0 0 1 8 40)" fill="#D9D9D9"/>
<circle r="7" transform="matrix(-1 0 0 1 13 27)" fill="#D9D9D9"/>
<circle r="7" transform="matrix(-1 0 0 1 22 16)" fill="#D9D9D9"/>
<path d="M78 119.5C78 135.792 64.7924 149 48.5 149C32.2076 149 19 135.792 19 119.5C19 103.208 32.2076 90 48.5 90C64.7924 90 78 103.208 78 119.5ZM25.0091 119.5C25.0091 132.474 35.5263 142.991 48.5 142.991C61.4737 142.991 71.9909 132.474 71.9909 119.5C71.9909 106.526 61.4737 96.0091 48.5 96.0091C35.5263 96.0091 25.0091 106.526 25.0091 119.5Z" fill="#D9D9D9"/>
<path d="M68 119.5C68 130.27 59.2696 139 48.5 139C37.7304 139 29 130.27 29 119.5C29 108.73 37.7304 100 48.5 100C59.2696 100 68 108.73 68 119.5ZM32.9721 119.5C32.9721 128.076 39.9242 135.028 48.5 135.028C57.0758 135.028 64.0279 128.076 64.0279 119.5C64.0279 110.924 57.0758 103.972 48.5 103.972C39.9242 103.972 32.9721 110.924 32.9721 119.5Z" fill="#D9D9D9"/>
</svg>
